<?xml version="1.0" encoding="utf-8"?><!-- Uploaded to: SVG Repo, www.svgrepo.com, Generator: SVG Repo Mixer Tools -->
<svg fill="#000000" width="800px" height="800px" viewBox="0 0 24 24" id="dashboard-alt-2" xmlns="http://www.w3.org/2000/svg" class="icon multi-color"><path id="secondary-fill" d="M20.74,14.48A8.89,8.89,0,0,1,17.51,20H6.23A8.89,8.89,0,0,1,3,14.48a9,9,0,0,1,17.74,0Z" style="fill: rgb(44, 169, 188); stroke-width: 2;"></path><path id="primary-stroke" d="M21,13a9,9,0,0,1-3.36,7H6.36A9,9,0,1,1,21,13Zm-9,1a1,1,0,1,0,1,1A1,1,0,0,0,12,14Zm4-5-4,6" style="fill: none; stroke: rgb(0, 0, 0); stroke-linecap: round; stroke-linejoin: round; stroke-width: 2;"></path></svg>